<?xml version="1.0" standalone="no"?>
<!DOCTYPE svg PUBLIC "-//W3C//DTD SVG 20010904//EN"
 "http://www.w3.org/TR/2001/REC-SVG-20010904/DTD/svg10.dtd">
<svg version="1.0" xmlns="http://www.w3.org/2000/svg"
 width="700.000000pt" height="700.000000pt" viewBox="0 0 700.000000 700.000000"
 preserveAspectRatio="xMidYMid meet">
<metadata>
Created by potrace 1.14, written by Peter Selinger 2001-2017
</metadata>
<g transform="translate(0.000000,700.000000) scale(0.100000,-0.100000)"
fill="#000000" stroke="none">
<path d="M3395 6632 c-80 -5 -255 -43 -351 -75 -270 -91 -528 -261 -780 -512
-165 -164 -193 -197 -324 -370 -243 -323 -406 -611 -615 -1090 -18 -40 -59
-146 -85 -220 -12 -33 -25 -69 -30 -80 -40 -98 -155 -507 -175 -624 -3 -19 -7
-37 -9 -40 -2 -3 -7 -22 -10 -41 -7 -49 -36 -230 -41 -260 -20 -127 -28 -577
-12 -690 32 -219 69 -385 122 -537 333 -965 1206 -1643 2215 -1720 179 -14
469 -3 590 22 14 2 41 7 60 10 197 29 474 121 690 229 524 262 944 699 1185
1234 79 175 157 418 180 562 3 19 8 49 12 65 22 110 31 251 28 465 -2 129 -5
249 -8 265 -3 17 -8 53 -11 80 -3 28 -8 61 -10 75 -2 14 -8 48 -12 75 -4 28
-8 55 -9 60 -2 6 -8 37 -14 70 -56 280 -135 552 -256 875 -100 267 -309 684
-463 925 -83 129 -97 149 -204 292 -128 171 -151 198 -327 373 -417 415 -873
614 -1336 582z m300 -456 c257 -56 478 -190 736 -446 156 -153 270 -293 397
-484 110 -165 115 -174 216 -356 274 -495 503 -1188 551 -1670 3 -30 8 -80 12
-110 8 -72 7 -308 -1 -385 -6 -55 -29 -203 -41 -266 -11 -57 -57 -209 -92
-299 -159 -420 -457 -784 -839 -1027 -221 -141 -546 -268 -764 -298 -25 -3
-58 -8 -75 -11 -145 -25 -433 -25 -600 1 -603 92 -1126 425 -1461 930 -186
281 -304 615 -340 965 -8 79 -7 323 1 405 11 107 13 129 19 170 3 22 7 49 10
60 2 11 7 43 10 70 4 28 25 125 46 218 180 776 581 1565 1038 2038 l107 111
303 -545 c166 -299 302 -549 302 -554 0 -5 -21 -34 -46 -64 -78 -93 -113 -134
-279 -334 -22 -27 -44 -53 -50 -59 -5 -6 -28 -33 -50 -61 -22 -27 -47 -57 -55
-65 -8 -9 -27 -31 -41 -50 -15 -19 -41 -51 -58 -70 -78 -87 -106 -152 -97
-222 7 -54 20 -77 110 -203 47 -66 90 -127 96 -135 185 -263 567 -793 588
-813 55 -58 137 -77 222 -51 108 32 174 166 136 275 -7 20 -158 239 -336 488
-292 410 -321 453 -308 469 8 9 82 98 164 197 82 99 156 189 166 200 213 255
294 356 308 388 27 60 21 131 -18 206 -32 60 -42 78 -93 169 -12 20 -35 62
-52 92 -16 30 -57 105 -92 165 -34 61 -79 142 -100 180 -21 39 -66 120 -99
180 -34 61 -65 117 -69 125 -4 8 -11 22 -17 30 -5 8 -48 83 -94 167 -61 110
-81 154 -73 161 46 37 267 116 357 127 30 4 56 8 58 10 9 9 227 -5 287 -19z"/>
</g>
</svg>
